<svg width="26" height="26" viewBox="0 0 26 26" fill="none" xmlns="http://www.w3.org/2000/svg">
<path d="M17.8009 7.55016L16.4491 5.4143C16.1642 5.08219 15.7737 4.875 15.3359 4.875H10.6641C10.2263 4.875 9.83582 5.08219 9.55094 5.4143L8.19914 7.55016C7.91426 7.88277 7.54711 8.125 7.10938 8.125H4.0625C3.63152 8.125 3.2182 8.29621 2.91345 8.60095C2.6087 8.9057 2.4375 9.31902 2.4375 9.75V19.5C2.4375 19.931 2.6087 20.3443 2.91345 20.649C3.2182 20.9538 3.63152 21.125 4.0625 21.125H21.9375C22.3685 21.125 22.7818 20.9538 23.0865 20.649C23.3913 20.3443 23.5625 19.931 23.5625 19.5V9.75C23.5625 9.31902 23.3913 8.9057 23.0865 8.60095C22.7818 8.29621 22.3685 8.125 21.9375 8.125H18.9414C18.5021 8.125 18.0857 7.88277 17.8009 7.55016Z" stroke="#A8A8A8" stroke-linecap="round" stroke-linejoin="round"/>
<path d="M13 17.875C15.2437 17.875 17.0625 16.0562 17.0625 13.8125C17.0625 11.5688 15.2437 9.75 13 9.75C10.7563 9.75 8.9375 11.5688 8.9375 13.8125C8.9375 16.0562 10.7563 17.875 13 17.875Z" stroke="#A8A8A8" stroke-miterlimit="10"/>
<path d="M6.29688 8.02344V6.90625H5.07812V8.02344" stroke="#A8A8A8" stroke-linecap="round" stroke-linejoin="round"/>
</svg>
