<svg width="18" height="15" viewBox="0 0 18 15" fill="none" xmlns="http://www.w3.org/2000/svg">
<path d="M15.8375 7.4375L17.0625 8.67125L11.3488 14.4375L8.3125 11.375L9.5375 10.1413L11.3488 11.9613L15.8375 7.4375ZM7 0C7.92826 0 8.8185 0.368749 9.47487 1.02513C10.1313 1.6815 10.5 2.57174 10.5 3.5C10.5 4.42826 10.1313 5.3185 9.47487 5.97487C8.8185 6.63125 7.92826 7 7 7C6.07174 7 5.1815 6.63125 4.52513 5.97487C3.86875 5.3185 3.5 4.42826 3.5 3.5C3.5 2.57174 3.86875 1.6815 4.52513 1.02513C5.1815 0.368749 6.07174 0 7 0ZM7 1.75C6.53587 1.75 6.09075 1.93437 5.76256 2.26256C5.43437 2.59075 5.25 3.03587 5.25 3.5C5.25 3.96413 5.43437 4.40925 5.76256 4.73744C6.09075 5.06563 6.53587 5.25 7 5.25C7.46413 5.25 7.90925 5.06563 8.23744 4.73744C8.56563 4.40925 8.75 3.96413 8.75 3.5C8.75 3.03587 8.56563 2.59075 8.23744 2.26256C7.90925 1.93437 7.46413 1.75 7 1.75ZM7 7.875C7.595 7.875 8.3125 7.95375 9.10875 8.1025L7.6475 9.56375L7 9.5375C4.40125 9.5375 1.6625 10.815 1.6625 11.375V12.3375H7.0875L8.75 14H0V11.375C0 9.0475 4.66375 7.875 7 7.875Z" fill="#8B8B8B"/>
</svg>
