<svg width="59" height="56" viewBox="0 0 59 56" fill="none" xmlns="http://www.w3.org/2000/svg">
<g filter="url(#filter0_d_54_507)">
<path d="M27.3532 23.0526L30.0909 25.7137V25.5789C30.0909 24.9089 29.8179 24.2663 29.3321 23.7926C28.8462 23.3188 28.1872 23.0526 27.5 23.0526H27.3532ZM23.6395 23.7263L24.9782 25.0316C24.935 25.2084 24.9091 25.3853 24.9091 25.5789C24.9091 26.249 25.1821 26.8915 25.668 27.3653C26.1538 27.8391 26.8128 28.1053 27.5 28.1053C27.69 28.1053 27.88 28.08 28.0614 28.0379L29.4 29.3432C28.8214 29.6211 28.1823 29.7895 27.5 29.7895C26.3547 29.7895 25.2564 29.3459 24.4466 28.5562C23.6368 27.7666 23.1818 26.6956 23.1818 25.5789C23.1818 24.9137 23.3545 24.2905 23.6395 23.7263ZM18.8636 19.0695L20.8327 20.9895L21.2214 21.3684C19.7964 22.4632 18.6736 23.8947 18 25.5789C19.4941 29.2758 23.1818 31.8947 27.5 31.8947C28.8386 31.8947 30.1168 31.6421 31.2827 31.1874L31.6541 31.5411L34.1759 34L35.2727 32.9305L19.9605 18M27.5 21.3684C28.6453 21.3684 29.7436 21.812 30.5534 22.6017C31.3632 23.3913 31.8182 24.4622 31.8182 25.5789C31.8182 26.1179 31.7059 26.64 31.5073 27.1116L34.0377 29.5789C35.3332 28.5263 36.3695 27.1453 37 25.5789C35.5059 21.8821 31.8182 19.2632 27.5 19.2632C26.2909 19.2632 25.1336 19.4737 24.0455 19.8526L25.9195 21.6632C26.4118 21.4779 26.9386 21.3684 27.5 21.3684Z" fill="white"/>
</g>
<defs>
<filter id="filter0_d_54_507" x="0" y="0" width="59" height="56" filterUnits="userSpaceOnUse" color-interpolation-filters="sRGB">
<feFlood flood-opacity="0" result="BackgroundImageFix"/>
<feColorMatrix in="SourceAlpha" type="matrix" values="0 0 0 0 0 0 0 0 0 0 0 0 0 0 0 0 0 0 127 0" result="hardAlpha"/>
<feOffset dx="2" dy="2"/>
<feGaussianBlur stdDeviation="10"/>
<feComposite in2="hardAlpha" operator="out"/>
<feColorMatrix type="matrix" values="0 0 0 0 0.505882 0 0 0 0 0.917647 0 0 0 0 0.568627 0 0 0 0.25 0"/>
<feBlend mode="normal" in2="BackgroundImageFix" result="effect1_dropShadow_54_507"/>
<feBlend mode="normal" in="SourceGraphic" in2="effect1_dropShadow_54_507" result="shape"/>
</filter>
</defs>
</svg>
