<svg width="20" height="20" viewBox="0 0 20 20" fill="none" xmlns="http://www.w3.org/2000/svg">
<path fill-rule="evenodd" clip-rule="evenodd" d="M4.73432 12.0274C3.69516 10.6877 3.20543 9.00245 3.36473 7.31448C3.52403 5.6265 4.32041 4.06261 5.59185 2.94097C6.8633 1.81933 8.51429 1.22419 10.209 1.27663C11.9036 1.32907 13.5147 2.02515 14.7143 3.22326C15.915 4.4222 16.6134 6.03386 16.6671 7.72981C16.7208 9.42577 16.1258 11.0784 15.0033 12.3509C13.8808 13.6234 12.3154 14.42 10.626 14.5783C8.93661 14.7367 7.25039 14.2449 5.91098 13.2033L5.87515 13.2408L2.34015 16.7766C2.26273 16.854 2.17081 16.9154 2.06965 16.9573C1.96849 16.9992 1.86006 17.0208 1.75057 17.0208C1.64107 17.0208 1.53265 16.9992 1.43149 16.9573C1.33033 16.9154 1.23841 16.854 1.16098 16.7766C1.08356 16.6992 1.02214 16.6072 0.98024 16.5061C0.938337 16.4049 0.916769 16.2965 0.916769 16.187C0.916769 16.0775 0.938337 15.9691 0.98024 15.8679C1.02214 15.7668 1.08356 15.6748 1.16098 15.5974L4.69682 12.0624L4.73432 12.0274ZM6.46432 4.40242C5.99382 4.86532 5.61962 5.4168 5.36332 6.02504C5.10701 6.63328 4.97367 7.28624 4.97098 7.94627C4.96829 8.60631 5.09632 9.26034 5.34766 9.87064C5.599 10.4809 5.96869 11.0355 6.43541 11.5022C6.90212 11.9689 7.45663 12.3386 8.06693 12.5899C8.67724 12.8413 9.33127 12.9693 9.9913 12.9666C10.6513 12.9639 11.3043 12.8306 11.9125 12.5743C12.5208 12.318 13.0723 11.9438 13.5351 11.4733C14.4602 10.533 14.9763 9.26529 14.9709 7.94627C14.9655 6.62726 14.4392 5.36379 13.5065 4.4311C12.5738 3.4984 11.3103 2.97205 9.9913 2.96667C8.67228 2.9613 7.40458 3.47736 6.46432 4.40242Z" fill="#9C9C9C"/>
</svg>
