<svg width="20" height="20" viewBox="0 0 20 20" fill="none" xmlns="http://www.w3.org/2000/svg">
<path d="M14.1248 5.38504C13.898 5.46487 13.6567 5.49469 13.4173 5.47245C13.1778 5.4502 12.9461 5.37642 12.7379 5.25617C12.5297 5.13592 12.35 4.97204 12.2111 4.77579C12.0722 4.57953 11.9774 4.35555 11.9332 4.11921L11.6665 2.68587C10.57 2.43609 9.43135 2.43609 8.33484 2.68587L8.0665 4.11921C8.02232 4.35555 7.92752 4.57953 7.78862 4.77579C7.64972 4.97204 7.46999 5.13592 7.26179 5.25617C7.05359 5.37642 6.82183 5.4502 6.58242 5.47245C6.34302 5.49469 6.10163 5.46487 5.87484 5.38504L4.50067 4.90171C3.73575 5.72569 3.16586 6.71109 2.83317 7.78504L3.9415 8.73504C4.12404 8.89151 4.27057 9.08561 4.37103 9.30404C4.47149 9.52246 4.52351 9.76004 4.52351 10.0005C4.52351 10.2409 4.47149 10.4785 4.37103 10.6969C4.27057 10.9153 4.12404 11.1094 3.9415 11.2659L2.83317 12.215C3.16586 13.289 3.73575 14.2744 4.50067 15.0984L5.87567 14.615C6.10247 14.5352 6.34385 14.5054 6.58326 14.5276C6.82266 14.5499 7.05442 14.6237 7.26262 14.7439C7.47083 14.8642 7.65055 15.028 7.78945 15.2243C7.92836 15.4205 8.02315 15.6445 8.06734 15.8809L8.33317 17.3142C9.42968 17.564 10.5683 17.564 11.6648 17.3142L11.9332 15.8809C11.9774 15.6445 12.0722 15.4205 12.2111 15.2243C12.35 15.028 12.5297 14.8642 12.7379 14.7439C12.9461 14.6237 13.1778 14.5499 13.4173 14.5276C13.6567 14.5054 13.898 14.5352 14.1248 14.615L15.499 15.0984C16.2639 14.2744 16.8338 13.289 17.1665 12.215L16.0582 11.265C15.8758 11.1086 15.7294 10.9145 15.629 10.6962C15.5286 10.4778 15.4767 10.2404 15.4767 10C15.4767 9.75973 15.5286 9.52226 15.629 9.30391C15.7294 9.08557 15.8758 8.89151 16.0582 8.73504L17.1665 7.78504C16.8341 6.71117 16.2645 5.72577 15.4998 4.90171L14.1248 5.38504ZM9.99984 7.50004C9.3368 7.50004 8.70091 7.76343 8.23207 8.23227C7.76323 8.70112 7.49984 9.337 7.49984 10C7.49984 10.6631 7.76323 11.299 8.23207 11.7678C8.70091 12.2366 9.3368 12.5 9.99984 12.5C10.6629 12.5 11.2988 12.2366 11.7676 11.7678C12.2364 11.299 12.4998 10.6631 12.4998 10C12.4998 9.337 12.2364 8.70112 11.7676 8.23227C11.2988 7.76343 10.6629 7.50004 9.99984 7.50004Z" stroke="#8B8B8B" stroke-width="1.5" stroke-linecap="round" stroke-linejoin="round"/>
</svg>
