<svg width="26" height="26" viewBox="0 0 26 26" fill="none" xmlns="http://www.w3.org/2000/svg">
<path d="M11.1429 14.8571H1.85715C1.33096 14.8571 0.890197 14.6789 0.534864 14.3223C0.17953 13.9657 0.0012445 13.525 6.40393e-06 13C-0.00123169 12.475 0.177054 12.0343 0.534864 11.6777C0.892673 11.3211 1.33343 11.1429 1.85715 11.1429H11.1429V1.85715C11.1429 1.33096 11.3211 0.890197 11.6777 0.534864C12.0343 0.17953 12.475 0.0012445 13 6.40393e-06C13.525 -0.00123169 13.9663 0.177054 14.3241 0.534864C14.682 0.892673 14.8596 1.33343 14.8571 1.85715V11.1429H24.1429C24.669 11.1429 25.1104 11.3211 25.467 11.6777C25.8236 12.0343 26.0012 12.475 26 13C25.9988 13.525 25.8205 13.9663 25.4651 14.3241C25.1098 14.682 24.669 14.8596 24.1429 14.8571H14.8571V24.1429C14.8571 24.669 14.6789 25.1104 14.3223 25.467C13.9657 25.8236 13.525 26.0012 13 26C12.475 25.9988 12.0343 25.8205 11.6777 25.4651C11.3211 25.1098 11.1429 24.669 11.1429 24.1429V14.8571Z" fill="white"/>
</svg>
