<svg width="18" height="18" viewBox="0 0 18 18" fill="none" xmlns="http://www.w3.org/2000/svg">
<path d="M4.5 11.25H4.05C3.0525 11.25 2.25 10.4475 2.25 9.45V4.05C2.25 3.0525 3.0525 2.25 4.05 2.25H9.45C10.4475 2.25 11.25 3.0525 11.25 4.05V4.5M8.55 6.75H13.95C14.4274 6.75 14.8852 6.93964 15.2228 7.27721C15.5604 7.61477 15.75 8.07261 15.75 8.55V13.95C15.75 14.4274 15.5604 14.8852 15.2228 15.2228C14.8852 15.5604 14.4274 15.75 13.95 15.75H8.55C8.07261 15.75 7.61477 15.5604 7.27721 15.2228C6.93964 14.8852 6.75 14.4274 6.75 13.95V8.55C6.75 8.31362 6.79656 8.07956 6.88702 7.86117C6.97748 7.64278 7.11006 7.44435 7.27721 7.27721C7.44435 7.11006 7.64278 6.97748 7.86117 6.88702C8.07956 6.79656 8.31362 6.75 8.55 6.75Z" stroke="white" stroke-width="1.5" stroke-miterlimit="10" stroke-linecap="round" stroke-linejoin="round"/>
</svg>
