<svg width="16" height="16" viewBox="0 0 16 16" fill="none" xmlns="http://www.w3.org/2000/svg">
<path fill-rule="evenodd" clip-rule="evenodd" d="M0 3.8856C0 2.85507 0.409375 1.86676 1.13807 1.13807C1.86676 0.409375 2.85507 0 3.8856 0H8C8.21217 0 8.41566 0.0842854 8.56569 0.234315C8.71571 0.384344 8.8 0.587827 8.8 0.8C8.8 1.01217 8.71571 1.21566 8.56569 1.36569C8.41566 1.51571 8.21217 1.6 8 1.6H3.8856C3.27942 1.6 2.69807 1.8408 2.26944 2.26944C1.8408 2.69807 1.6 3.27942 1.6 3.8856V12.1144C1.6 12.7206 1.8408 13.3019 2.26944 13.7306C2.69807 14.1592 3.27942 14.4 3.8856 14.4H12.1144C12.7206 14.4 13.3019 14.1592 13.7306 13.7306C14.1592 13.3019 14.4 12.7206 14.4 12.1144V8C14.4 7.78783 14.4843 7.58434 14.6343 7.43431C14.7843 7.28429 14.9878 7.2 15.2 7.2C15.4122 7.2 15.6157 7.28429 15.7657 7.43431C15.9157 7.58434 16 7.78783 16 8V12.1144C16 13.1449 15.5906 14.1332 14.8619 14.8619C14.1332 15.5906 13.1449 16 12.1144 16H3.8856C2.85507 16 1.86676 15.5906 1.13807 14.8619C0.409375 14.1332 0 13.1449 0 12.1144V3.8856Z" fill="white"/>
<path fill-rule="evenodd" clip-rule="evenodd" d="M10.5097 8.97533L8.74567 10.0393L7.91927 8.66893L9.68327 7.60493L9.68567 7.60333C9.75328 7.56261 9.81562 7.51371 9.87127 7.45773L13.8793 3.42893C13.9194 3.38845 13.9581 3.34656 13.9953 3.30333C14.2601 2.99453 14.6521 2.38333 14.1777 1.90653C13.7769 1.50333 13.2025 1.88413 12.8305 2.21133C12.7307 2.2993 12.6346 2.39138 12.5425 2.48733L12.5153 2.51453L8.56327 6.48653C8.46943 6.57981 8.39589 6.69148 8.34727 6.81453L7.68807 8.47293C7.67556 8.50414 7.67321 8.53849 7.68133 8.57111C7.68946 8.60373 7.70765 8.63296 7.73333 8.65465C7.75901 8.67635 7.79087 8.6894 7.82439 8.69197C7.85791 8.69453 7.89059 8.68647 7.91927 8.66893L8.74567 10.0393C7.30167 10.9097 5.57767 9.44733 6.20167 7.88093L6.86167 6.22333C6.99016 5.89941 7.18344 5.60513 7.42967 5.35853L11.3809 1.38573L11.4041 1.36253C11.5217 1.24253 11.9169 0.837731 12.3961 0.546531C12.6577 0.388931 13.0753 0.180131 13.5913 0.140131C14.1833 0.0929305 14.8153 0.27933 15.3113 0.77773C15.6909 1.15276 15.9297 1.64721 15.9873 2.17773C16.0269 2.59125 15.9637 3.00815 15.8033 3.39133C15.5713 3.96493 15.1841 4.38653 15.0137 4.55693L11.0057 8.58573C10.8563 8.7356 10.691 8.86546 10.5097 8.97533ZM14.0721 3.27453C14.0721 3.27453 14.0689 3.27693 14.0617 3.27933L14.0721 3.27453Z" fill="white"/>
</svg>
