<svg width="21" height="21" viewBox="0 0 21 21" fill="none" xmlns="http://www.w3.org/2000/svg">
<path d="M11.3888 4.75701C11.4854 4.669 11.6082 4.62068 11.7351 4.62068C11.862 4.62068 11.9848 4.669 12.0815 4.75701L16.2506 8.54935C16.3096 8.6031 16.357 8.66993 16.3895 8.74523C16.422 8.82053 16.4388 8.90248 16.4387 8.98542V14.9151C16.4387 14.9757 16.4162 15.0339 16.3761 15.0768C16.336 15.1198 16.2816 15.1439 16.2249 15.1439H14.0869C14.0302 15.1439 13.9758 15.1198 13.9358 15.0768C13.8957 15.0339 13.8731 14.9757 13.8731 14.9151V11.7121C13.8731 11.4087 13.7605 11.1177 13.56 10.9032C13.3595 10.6887 13.0876 10.5682 12.8041 10.5682H10.6644C10.524 10.5682 10.385 10.5977 10.2553 10.6552C10.1256 10.7127 10.0078 10.797 9.90851 10.9032C9.80924 11.0094 9.7305 11.1355 9.67677 11.2743C9.62305 11.4131 9.5954 11.5619 9.5954 11.7121V14.9151C9.5954 14.9757 9.57288 15.0339 9.53278 15.0768C9.49269 15.1198 9.4383 15.1439 9.3816 15.1439H7.2453C7.1886 15.1439 7.13422 15.1198 7.09412 15.0768C7.05403 15.0339 7.0315 14.9757 7.0315 14.9151V8.98496C7.0315 8.9021 7.04833 8.82023 7.08082 8.74502C7.1133 8.66981 7.16067 8.60304 7.21965 8.54935L11.3888 4.75701ZM12.6352 4.06013C12.384 3.83156 12.0649 3.70605 11.7351 3.70605C11.4053 3.70605 11.0863 3.83156 10.835 4.06013L6.6659 7.85202C6.51245 7.99161 6.38918 8.16523 6.30464 8.36086C6.2201 8.55648 6.17631 8.76943 6.1763 8.98496V14.9151C6.1763 15.2185 6.28893 15.5094 6.4894 15.7239C6.68988 15.9385 6.96179 16.059 7.2453 16.059H9.3816C9.66512 16.059 9.93702 15.9385 10.1375 15.7239C10.338 15.5094 10.4506 15.2185 10.4506 14.9151V11.7121C10.4506 11.6514 10.4731 11.5932 10.5132 11.5503C10.5533 11.5074 10.6077 11.4833 10.6644 11.4833H12.8041C12.8608 11.4833 12.9152 11.5074 12.9553 11.5503C12.9954 11.5932 13.0179 11.6514 13.0179 11.7121V14.9151C13.0179 15.2185 13.1306 15.5094 13.331 15.7239C13.5315 15.9385 13.8034 16.059 14.0869 16.059H16.2249C16.5085 16.059 16.7804 15.9385 16.9808 15.7239C17.1813 15.5094 17.2939 15.2185 17.2939 14.9151V8.98496C17.2939 8.76943 17.2501 8.55648 17.1656 8.36086C17.0811 8.16523 16.9578 7.99161 16.8043 7.85202L12.6352 4.06013Z" fill="white"/>
</svg>
