<svg width="16" height="18" viewBox="0 0 16 18" fill="none" xmlns="http://www.w3.org/2000/svg">
<path fill-rule="evenodd" clip-rule="evenodd" d="M6.60372 2.8979C6.02179 3.0491 5.47827 3.2858 5.09968 3.6134C4.06606 4.5089 3.64531 5.7221 3.64531 7.9091C3.64531 9.4679 2.72133 10.9439 2.05599 11.8997C1.91167 12.1085 1.86669 12.3074 1.87513 12.4271C1.87888 12.4811 1.89199 12.5063 1.89762 12.5153C1.90137 12.5216 1.91261 12.5387 1.95759 12.5621C2.60606 12.8951 3.58439 13.1381 4.71547 13.292C5.80418 13.4323 6.90153 13.5018 8 13.4999C8.24853 13.4999 8.48689 13.5947 8.66263 13.7635C8.83837 13.9323 8.9371 14.1612 8.9371 14.3999C8.9371 14.6386 8.83837 14.8675 8.66263 15.0363C8.48689 15.2051 8.24853 15.2999 8 15.2999C6.94295 15.2999 5.67225 15.2414 4.45215 15.0749C3.25079 14.9102 2.01288 14.6312 1.07391 14.1497C0.383267 13.7951 0.0496595 13.1777 0.00561592 12.5486C-0.0374906 11.9555 0.171482 11.3696 0.497592 10.9007C1.16949 9.9341 1.77111 8.8676 1.77111 7.9091C1.77111 5.5142 2.23216 3.6728 3.84491 2.2769C4.5243 1.6883 5.378 1.3526 6.11175 1.1609C6.72702 0.99703 7.36158 0.90932 8 0.899902C8.24853 0.899902 8.48689 0.994723 8.66263 1.16351C8.83837 1.33229 8.9371 1.56121 8.9371 1.7999C8.9371 2.0386 8.83837 2.26752 8.66263 2.4363C8.48689 2.60508 8.24853 2.6999 8 2.6999C7.71325 2.6999 7.1791 2.7467 6.60372 2.8979Z" fill="white"/>
<path fill-rule="evenodd" clip-rule="evenodd" d="M9.39636 2.8979C9.9783 3.0491 10.5218 3.2858 10.9004 3.6134C11.934 4.5089 12.3548 5.7221 12.3548 7.9091C12.3548 9.4679 13.2788 10.9439 13.9441 11.8997C14.0884 12.1085 14.1334 12.3074 14.125 12.4271C14.1254 12.4579 14.1177 12.4882 14.1025 12.5153C14.0987 12.5216 14.0875 12.5387 14.0425 12.5621C13.394 12.8951 12.4157 13.1381 11.2846 13.292C10.1959 13.4323 9.09856 13.5018 8.00009 13.4999C7.75155 13.4999 7.5132 13.5947 7.33746 13.7635C7.16172 13.9323 7.06299 14.1612 7.06299 14.3999C7.06299 14.6386 7.16172 14.8675 7.33746 15.0363C7.5132 15.2051 7.75155 15.2999 8.00009 15.2999C9.05713 15.2999 10.3269 15.2414 11.5479 15.0749C12.7493 14.9102 13.9872 14.6312 14.9262 14.1497C15.6168 13.7951 15.9504 13.1777 15.9945 12.5486C16.0376 11.9555 15.8286 11.3696 15.5025 10.9007C14.8306 9.9341 14.229 8.8676 14.229 7.9091C14.229 5.5142 13.7679 3.6728 12.1552 2.2769C11.4758 1.6883 10.6221 1.3526 9.88834 1.1609C9.27306 0.99703 8.63851 0.90932 8.00009 0.899902C7.75155 0.899902 7.5132 0.994723 7.33746 1.16351C7.16172 1.33229 7.06299 1.56121 7.06299 1.7999C7.06299 2.0386 7.16172 2.26752 7.33746 2.4363C7.5132 2.60508 7.75155 2.6999 8.00009 2.6999C8.28684 2.6999 8.82098 2.7467 9.39636 2.8979Z" fill="white"/>
<path d="M10.4804 1.512C10.4804 2.1375 9.17222 1.5498 8.13767 1.5498C7.10311 1.5498 5.79492 2.1375 5.79492 1.5111C5.79492 0.8856 6.73202 0 8.13767 0C9.54331 0 10.4804 0.8856 10.4804 1.512Z" fill="white"/>
<path fill-rule="evenodd" clip-rule="evenodd" d="M6.12615 14.3999C6.12615 14.8773 6.32361 15.3351 6.67509 15.6727C7.02657 16.0103 7.50328 16.1999 8.00035 16.1999C8.49741 16.1999 8.97412 16.0103 9.3256 15.6727C9.67708 15.3351 9.87454 14.8773 9.87454 14.3999H11.7487C11.7487 15.3547 11.3538 16.2704 10.6509 16.9455C9.9479 17.6206 8.99448 17.9999 8.00035 17.9999C7.00621 17.9999 6.05279 17.6206 5.34983 16.9455C4.64687 16.2704 4.25195 15.3547 4.25195 14.3999H6.12615Z" fill="white"/>
</svg>
