<svg width="14" height="14" viewBox="0 0 14 14" fill="none" xmlns="http://www.w3.org/2000/svg">
<path d="M6.9678 6.93333C7.92587 6.93333 8.74603 6.59389 9.42829 5.915C10.1105 5.23611 10.4517 4.42 10.4517 3.46667C10.4517 2.51333 10.1105 1.69722 9.42829 1.01833C8.74603 0.339445 7.92587 0 6.9678 0C6.00974 0 5.18958 0.339445 4.50732 1.01833C3.82506 1.69722 3.48393 2.51333 3.48393 3.46667C3.48393 4.42 3.82506 5.23611 4.50732 5.915C5.18958 6.59389 6.00974 6.93333 6.9678 6.93333ZM13.9355 12.1333V11.44C13.9355 10.9489 13.8084 10.4976 13.5541 10.0863C13.2997 9.67489 12.9624 9.36058 12.542 9.14333C11.642 8.69556 10.7275 8.35987 9.79845 8.13627C8.86942 7.91267 7.92587 7.80058 6.9678 7.8C6.00974 7.79942 5.06619 7.91151 4.13716 8.13627C3.20813 8.36102 2.29361 8.69671 1.39361 9.14333C0.972644 9.36 0.634998 9.67431 0.380676 10.0863C0.126353 10.4982 -0.000517845 10.9495 6.29425e-05 11.44V12.1333C6.29425e-05 12.61 0.170483 13.0182 0.511321 13.3579C0.85216 13.6977 1.26239 13.8672 1.742 13.8667H12.1936C12.6726 13.8667 13.0826 13.6971 13.4234 13.3579C13.7643 13.0188 13.935 12.6106 13.9355 12.1333ZM12.1936 12.1333H1.742V11.44C1.742 11.2811 1.78177 11.1367 1.86132 11.0067C1.94087 10.8767 2.04626 10.7756 2.17748 10.7033C2.96135 10.3133 3.75248 10.021 4.55087 9.82627C5.34926 9.63156 6.1549 9.53391 6.9678 9.53333C7.78071 9.53276 8.58635 9.6304 9.38474 9.82627C10.1831 10.0221 10.9743 10.3145 11.7581 10.7033C11.8888 10.7756 11.9942 10.8767 12.0743 11.0067C12.1544 11.1367 12.1942 11.2811 12.1936 11.44V12.1333ZM6.9678 5.2C6.48877 5.2 6.07855 5.03042 5.73713 4.69127C5.39571 4.35211 5.22529 3.94391 5.22587 3.46667C5.22645 2.98942 5.39687 2.58151 5.73713 2.24293C6.07739 1.90436 6.48761 1.73449 6.9678 1.73333C7.448 1.73218 7.85793 1.90204 8.19761 2.24293C8.53729 2.58382 8.708 2.99173 8.70974 3.46667C8.71148 3.9416 8.54077 4.3498 8.19761 4.69127C7.85445 5.03273 7.44451 5.20231 6.9678 5.2Z" fill="#8B8B8B"/>
</svg>
